<?xml version="1.0" standalone="no"?><!DOCTYPE svg PUBLIC "-//W3C//DTD SVG 1.1//EN" "http://www.w3.org/Graphics/SVG/1.1/DTD/svg11.dtd"><svg t="1569379818409" class="icon" viewBox="0 0 1024 1024" version="1.1" xmlns="http://www.w3.org/2000/svg" p-id="4916" xmlns:xlink="http://www.w3.org/1999/xlink" width="200" height="200"><defs><style type="text/css"></style></defs><path d="M828.816482 191.39039c-44.939533-45.047908-105.665702-69.865801-170.9075-69.865801-36.739152 0-73.875679 8.381006-107.435829 24.239893a258.185564 258.185564 0 0 0-38.437028 22.469766 256.733338 256.733338 0 0 0-38.473153-22.469766c-33.56015-15.858887-70.696677-24.239893-107.435829-24.239893-65.277923 0-125.967967 24.817893-170.9075 69.865801-44.903408 45.011783-69.649051 105.774077-69.649051 171.124251 0 149.268609 115.63621 255.078812 290.698088 415.184929l7.008255 6.394129 57.258167 51.478163c12.029634 9.392507 39.520779 24.059268 69.251676-5.707754l0.108375-0.108375c3.359627-3.395752 6.032879-5.671629 8.344881-7.514006l49.491286-44.542157c175.061878-160.142242 290.734213-265.91632 290.734213-415.221055-0.036125-65.277923-24.745643-126.040217-69.649051-171.088125z m-251.755309 552.82128l-6.791505 6.213505-46.818035 42.085655-11.451633 10.259508-58.341918-52.453538-6.719255-6.141255c-166.175122-151.977986-275.922952-252.40556-275.922952-381.660904 0-53.212164 20.013265-102.595075 56.355042-139.045227C263.712693 187.019262 312.987229 166.933747 366.127143 166.933747c30.056022 0 60.509419 6.863755 88.03669 19.90489 21.349891 10.078882 41.03803 23.914768 57.872292 40.460029a211.667368 211.667368 0 0 1 57.872292-40.460029c27.52727-13.00501 57.980667-19.90489 88.03669-19.90489 53.103789 0 102.378325 20.085515 138.756227 56.535667 36.341777 36.450152 56.355041 85.833063 56.355041 139.045227-0.036125 129.255345-109.82008 229.682918-275.995202 381.697029z" fill="#d02f3a" p-id="4917"></path></svg>