<?xml version="1.0" standalone="no"?><!DOCTYPE svg PUBLIC "-//W3C//DTD SVG 1.1//EN" "http://www.w3.org/Graphics/SVG/1.1/DTD/svg11.dtd"><svg t="1572333365346" class="icon" viewBox="0 0 1024 1024" version="1.1" xmlns="http://www.w3.org/2000/svg" p-id="4060" xmlns:xlink="http://www.w3.org/1999/xlink" width="200" height="200"><defs><style type="text/css"></style></defs><path d="M707.73187 140.65139c116.547413 0 211.364919 105.291045 211.364918 234.709603 0 78.903048-35.44221 134.252657-66.72775 183.110411-36.963866 57.81066-104.766089 132.077108-196.075701 214.771505-72.605621 65.754586-134.404106 113.619734-136.99921 115.625414-0.24457 0.188288-0.48607 0.379647-0.725525 0.574075-1.629103 1.319042-4.085038 2.105964-6.568602 2.105964-2.610454 0-4.929266-0.852414-7.297197-2.681062a37.015032 37.015032 0 0 0-0.690731-0.521886c-0.529049-0.39295-61.818951-47.303352-136.78227-115.211998-90.980107-82.418105-158.606321-156.630317-195.569164-214.613916l-0.134053-0.208755c-14.424524-22.327518-32.375362-50.116421-45.552475-81.31191-14.179954-33.571606-21.072945-66.817802-21.072945-101.636818 0-32.140001 5.730515-63.268976 17.030885-92.523254 10.840906-28.063149 26.315342-53.217039 45.995567-74.762751 39.712467-43.479257 92.234681-67.423599 147.889235-67.423598 31.459502 0 61.84658 7.592932 90.317005 22.566971 28.077475 14.767332 53.30402 36.619012 72.953546 63.192228a40.932248 40.932248 0 0 0 65.823148 0c19.683295-26.619264 44.849464-48.480154 72.77856-63.218834 28.343535-14.957667 58.638515-22.541389 90.042759-22.541389m0-40.932248c-77.215616 0-148.594293 38.60832-195.73187 102.356203-47.136553-63.747883-118.965485-102.356202-196.182125-102.356203-139.167596 0-251.847935 123.455753-251.847935 275.641851 0 90.683349 40.403199 154.431232 73.175603 205.15959 94.723362 148.595316 332.207148 333.104587 342.531284 340.736405 9.876951 7.631818 21.100574 11.223622 32.323173 11.223622 11.223622 0 22.89443-3.591805 32.32215-11.223622 9.875928-7.631818 247.807922-192.59032 342.532307-340.736405 32.770358-51.17759 73.17458-114.476241 73.174579-205.15959 0-152.187121-113.128547-275.641851-252.297166-275.641851z" p-id="4061" fill="#ffffff"></path></svg>