<?xml version="1.0" standalone="no"?><!DOCTYPE svg PUBLIC "-//W3C//DTD SVG 1.1//EN" "http://www.w3.org/Graphics/SVG/1.1/DTD/svg11.dtd"><svg t="1560993088857" class="icon" style="" viewBox="0 0 1024 1024" version="1.1" xmlns="http://www.w3.org/2000/svg" p-id="7020" xmlns:xlink="http://www.w3.org/1999/xlink" width="200" height="200"><defs><style type="text/css"></style></defs><path d="M456.392348 708.229565l0.512 0.512c21.74887 21.726609 56.987826 21.726609 78.714435 0l287.833043-287.833043a55.652174 55.652174 0 1 0-78.692174-78.714435L496.261565 590.692174l-149.548522-149.526261a55.652174 55.652174 0 1 0-78.692173 78.714435l187.859478 187.859478a9.950609 9.950609 0 0 0 0.512 0.489739z m417.658435 165.821218c-199.94713 199.94713-524.132174 199.94713-724.079305 0s-199.94713-524.132174 0-724.079305 524.132174-199.94713 724.079305 0 199.94713 524.109913 0 724.079305z" fill="#e20c32" p-id="7021"></path></svg>