<?xml version="1.0" standalone="no"?><!DOCTYPE svg PUBLIC "-//W3C//DTD SVG 1.1//EN" "http://www.w3.org/Graphics/SVG/1.1/DTD/svg11.dtd"><svg t="1564648434717" class="icon" viewBox="0 0 1024 1024" version="1.1" xmlns="http://www.w3.org/2000/svg" p-id="3235" xmlns:xlink="http://www.w3.org/1999/xlink" width="200" height="200"><defs><style type="text/css"></style></defs><path d="M29.824 512C29.824 245.312 245.824 29.312 512 29.312a482.304 482.304 0 0 1 482.176 482.176V512A481.664 481.664 0 0 1 512 994.176 481.984 481.984 0 0 1 29.824 512z m514.432 0l168.384-168.384a21.888 21.888 0 0 0 0-31.232l-1.024-1.024a21.888 21.888 0 0 0-31.232 0L512 480.32l-168.384-168.96a21.888 21.888 0 0 0-31.232 0l-1.024 1.024a21.888 21.888 0 0 0 0 31.232l168.384 168.896-168.384 168.384a21.888 21.888 0 0 0 0 31.232l1.024 1.024a21.888 21.888 0 0 0 31.232 0L512 544.768l168.384 168.384a21.888 21.888 0 0 0 31.232 0l1.024-1.024a21.888 21.888 0 0 0 0-31.232L544.256 512z" fill="#e20c32" p-id="3236"></path></svg>