<?xml version="1.0" standalone="no"?><!DOCTYPE svg PUBLIC "-//W3C//DTD SVG 1.1//EN" "http://www.w3.org/Graphics/SVG/1.1/DTD/svg11.dtd"><svg t="1590482310237" class="icon" viewBox="0 0 1024 1024" version="1.1" xmlns="http://www.w3.org/2000/svg" p-id="3301" xmlns:xlink="http://www.w3.org/1999/xlink" width="200" height="200"><defs><style type="text/css"></style></defs><path d="M412.352 768l36.992 64H96A96 96 0 0 1 0 736v-576A96 96 0 0 1 96 64h640A96 96 0 0 1 832 160v197.12h-64V160a32 32 0 0 0-32-32h-640a32 32 0 0 0-32 32v509.248l221.376-184.576 138.56 87.296-30.4 56.448L290.56 563.648l-223.424 186.24A32 32 0 0 0 96 768h316.352z m-225.92-516.672A117.312 117.312 0 1 1 389.568 368.64a117.312 117.312 0 0 1-203.264-117.312zM288 363.328a53.312 53.312 0 1 0 0-106.688 53.312 53.312 0 0 0 0 106.688z m337.92 117.76L513.92 680.32l112 199.04h220.16l112-199.04-112-199.104H625.92z m272.448-24.256l107.968 192a64 64 0 0 1 0 62.784l-107.968 192a64 64 0 0 1-55.808 32.64h-213.12a64 64 0 0 1-55.808-32.64l-107.968-192a64 64 0 0 1 0-62.72l107.968-192a64 64 0 0 1 55.808-32.64h213.12a64 64 0 0 1 55.808 32.64z m-162.368 280.32c20.608 0 39.616-10.88 49.92-28.48a56.32 56.32 0 0 0 0-56.896 57.728 57.728 0 0 0-49.92-28.416c-31.808 0-57.6 25.472-57.6 56.896 0 31.36 25.792 56.896 57.6 56.896z m0 56.896c-63.616 0-115.2-50.944-115.2-113.792s51.584-113.792 115.2-113.792 115.2 50.944 115.2 113.792-51.584 113.792-115.2 113.792z" p-id="3302" fill="#ffffff"></path></svg>