<?xml version="1.0" standalone="no"?><!DOCTYPE svg PUBLIC "-//W3C//DTD SVG 1.1//EN" "http://www.w3.org/Graphics/SVG/1.1/DTD/svg11.dtd"><svg t="1576805475783" class="icon" viewBox="0 0 1024 1024" version="1.1" xmlns="http://www.w3.org/2000/svg" p-id="12815" xmlns:xlink="http://www.w3.org/1999/xlink" width="200" height="200"><defs><style type="text/css"></style></defs><path d="M305.4 150.6c9.8 0 18.2-2.9 25.3-8.6 7.1-5.7 10.6-14 10.6-24.7 0-8.2-2.8-15.2-8.4-21.1-5.6-5.9-13.2-8.8-22.8-8.8-6.5 0-11.8 0.9-16 2.7-4.2 1.8-7.5 4.2-10 7.2-2.4 3-4.8 6.8-6.9 11.5-2.2 4.7-4.2 9.1-6 13.2-1.1 2.2-3 4-5.7 5.3-2.8 1.3-6 1.9-9.6 1.9-4.3 0-8.2-1.7-11.7-5.2-3.6-3.5-5.3-8-5.3-13.8 0-5.5 1.7-11.3 5-17.4 3.3-6.1 8.2-11.9 14.7-17.4 6.4-5.5 14.4-10 24-13.3 9.6-3.3 20.2-5 32-5 10.3 0 19.7 1.4 28.2 4.2 8.5 2.8 15.9 6.9 22.1 12.2 6.3 5.3 11 11.5 14.2 18.5 3.2 7 4.8 14.6 4.8 22.6 0 10.6-2.3 19.7-6.9 27.3-4.6 7.6-11.2 15-19.8 22.2 8.3 4.5 15.3 9.6 21 15.3 5.7 5.7 10 12.1 12.8 19 2.9 7 4.3 14.5 4.3 22.5 0 9.7-1.9 19-5.8 28s-9.6 17.1-17.1 24.1c-7.5 7.1-16.5 12.6-26.8 16.6-10.4 4-21.8 6-34.3 6-12.7 0-24.2-2.3-34.3-6.9-10.1-4.6-18.4-10.3-24.9-17.1-6.5-6.9-11.5-13.9-14.8-21.3-3.3-7.3-5-13.4-5-18.2 0-6.2 2-11.1 6-14.9 4-3.8 8.9-5.7 14.9-5.7 3 0 5.8 0.9 8.6 2.6 2.8 1.8 4.6 3.9 5.4 6.3 5.5 14.8 11.4 25.7 17.8 32.9 6.3 7.2 15.2 10.8 26.7 10.8 6.6 0 12.9-1.6 19-4.9 6.1-3.2 11.2-8 15.1-14.4 4-6.4 6-13.8 6-22.1 0-12.4-3.4-22.2-10.2-29.2-6.8-7.1-16.3-10.6-28.4-10.6-2.1 0-5.4 0.2-9.9 0.6-4.5 0.4-7.3 0.6-8.6 0.6-5.8 0-10.4-1.5-13.5-4.4-3.2-2.9-4.8-7-4.8-12.2 0-5.1 1.9-9.2 5.7-12.3 3.8-3.1 9.5-4.7 17-4.7h6.3zM469 165.2c7.2-8.6 15.1-15 23.6-19.1 8.5-4.1 18-6.2 28.5-6.2 10.1 0 19.4 1.9 28 5.7 8.5 3.8 16 9.1 22.5 16.1 6.4 7 11.4 15.2 14.9 24.6 3.5 9.5 5.3 19.3 5.3 29.6 0 15-3.4 28.6-10.3 40.8-6.9 12.2-16.4 21.8-28.7 28.6-12.3 6.9-26.2 10.3-41.7 10.3-17.8 0-33.3-4.4-46.2-13.1-13-8.7-22.9-21.6-29.7-38.6s-10.3-37.9-10.3-62.5c0-20.1 2.1-38 6.2-53.9 4.1-15.8 10.1-28.9 17.8-39.4 7.8-10.4 17.2-18.3 28.2-23.6 11-5.3 23.6-8 37.8-8 13.6 0 25.6 2.7 35.9 8 10.4 5.3 18.2 11.9 23.4 19.8 5.3 7.9 7.9 15.4 7.9 22.6 0 4.4-1.6 8.3-4.9 11.9-3.3 3.6-7.5 5.3-12.6 5.3-4.5 0-8.6-1.4-12.4-4.2-3.8-2.8-6.6-6.7-8.4-11.7-2.4-6.4-6.3-11.5-11.6-15.4-5.3-3.9-11.5-5.8-18.5-5.8-5.6 0-11.2 1.6-16.8 4.9-5.6 3.2-10.3 7.6-14.1 13.1-7.8 11.3-12.4 31.3-13.8 60.2z m43.1 99c10.7 0 19.6-4.4 26.6-13.1 7-8.8 10.5-20.3 10.5-34.5 0-9.7-1.6-18-4.9-24.9-3.3-7-7.8-12.3-13.5-15.9-5.7-3.7-12.1-5.5-19-5.5-6.6 0-12.9 1.8-18.9 5.3-6 3.5-10.8 8.6-14.5 15.2-3.7 6.6-5.5 14.4-5.5 23.3 0 14.3 3.7 26.3 11.2 35.9 7.4 9.4 16.7 14.2 28 14.2zM782.3 177c0 17.4-1.1 32.4-3.2 44.9s-6.1 23.9-11.8 34.1c-7.2 12.5-16.6 22.2-28 29-11.5 6.8-24.2 10.2-38.2 10.2-16.1 0-30.6-4.6-43.4-13.7-12.8-9.1-22.4-21.8-28.9-37.9-3.3-8.8-5.7-18.6-7.2-29.2-1.5-10.7-2.3-22.2-2.3-34.7 0-16 0.8-30.5 2.5-43.3 1.7-12.9 4.4-23.9 8-33.1 6.3-15.3 15.4-27 27.3-35 12-8 26.2-12 42.8-12 10.9 0 20.9 1.8 29.8 5.3 8.9 3.6 16.8 8.8 23.5 15.6 6.7 6.9 12.5 15.3 17.1 25.4 8 17.5 12 42.3 12 74.4z m-43.6-3.2c0-19.4-1.2-35.3-3.5-47.7-2.3-12.4-6.3-21.7-11.8-28-5.5-6.3-13.2-9.5-22.9-9.5-14 0-23.8 7.1-29.2 21.2-5.5 14.1-8.2 35.9-8.2 65.3 0 20 1.2 36.3 3.5 49.1 2.3 12.7 6.3 22.4 11.8 28.9 5.5 6.5 13 9.8 22.5 9.8 9.8 0 17.4-3.4 22.9-10.2 5.5-6.8 9.4-16.5 11.6-29.2 2.1-12.6 3.3-29.2 3.3-49.7zM811.5 105c0-7 1.4-13.7 4.1-20.1 2.8-6.4 6.5-11.8 11.1-16.3s10-8.1 16.2-10.7c6.2-2.6 12.7-3.9 19.6-3.9 9 0 17.5 2.3 25.3 6.8 7.9 4.5 14.1 10.7 18.6 18.6 4.6 7.9 6.9 16.4 6.9 25.7 0 9.1-2.3 17.6-6.9 25.4-4.6 7.8-10.7 13.9-18.5 18.4-7.8 4.5-16.3 6.7-25.5 6.7-14 0-26-4.9-36-14.8-9.9-10-14.9-21.9-14.9-35.8z m26.4 0c0 6.7 2.4 12.4 7.3 17 4.9 4.7 10.6 7 17.2 7s12.2-2.3 17-6.9c4.7-4.6 7.1-10.3 7.1-17.1 0-4.6-1.1-8.7-3.3-12.4-2.2-3.7-5.2-6.7-8.9-8.8-3.8-2.2-7.7-3.3-11.9-3.3-6.7 0-12.5 2.4-17.3 7.3-4.8 4.7-7.2 10.5-7.2 17.2z" p-id="12816"></path><path d="M901.6 598.5c-43.1-24.7-102.4-44.9-172.1-58.5-0.4-57.5-23-111.5-63.7-152.2C624.7 346.6 570.1 324 512 324s-112.7 22.6-153.8 63.7c-40.7 40.7-63.3 94.7-63.7 152.2-69.5 13.6-128.6 33.7-171.7 58.3C86 619.3 42 654.9 42 705c0 29.1 14.6 56.3 43.5 80.9 24.7 21.1 59.3 39.7 103 55.5 78.5 28.4 180.1 45.2 289 48.1l-35.6 40.7c-8.7 10-7.7 25.1 2.3 33.9 4.6 4 10.2 5.9 15.8 5.9 6.7 0 13.3-2.8 18.1-8.2l70-80c8.1-9.2 7.9-23-0.4-32.1l-70-76c-9-9.7-24.2-10.4-33.9-1.4s-10.4 24.2-1.4 33.9l32.4 35.2c-102.3-3.1-197.1-18.8-270-45.2C132.9 770.3 90 736.2 90 705c0-21.1 20.1-44.2 56.6-65.1 37.8-21.6 90.3-39.4 152.8-52 8.7 40.4 28.8 77.5 58.8 107.4C399.3 736.4 453.9 759 512 759s112.7-22.6 153.8-63.7c29.9-29.9 50-67 58.8-107.4 62.7 12.6 115.4 30.6 153.1 52.2C914 660.9 934 684 934 705c0 13.7-8.4 35.3-48.6 60.3-35.7 22.2-87.5 41.1-149.9 54.6-13 2.8-21.2 15.6-18.4 28.5 2.4 11.2 12.4 18.9 23.4 18.9 1.7 0 3.4-0.2 5.1-0.5 67.7-14.6 124.8-35.6 165.2-60.7 32.5-20.2 71.2-54.2 71.2-101 0-50-43.7-85.6-80.4-106.6zM512 711c-93.5 0-169.5-76-169.5-169.5S418.5 372 512 372s169.5 76 169.5 169.5S605.5 711 512 711z" p-id="12817"></path><path d="M512 420c-9.9 0-19.5 1.2-28.7 3.4 16.9 7.7 28.7 24.8 28.7 44.6 0 27.1-21.9 49-49 49-26.7 0-48.3-21.3-49-47.8-15.1 20.2-24 45.3-24 72.3 0 67 54.7 121.5 122 121.5s122-54.5 122-121.5S579.3 420 512 420z" p-id="12818"></path></svg>