<?xml version="1.0" standalone="no"?><!DOCTYPE svg PUBLIC "-//W3C//DTD SVG 1.1//EN" "http://www.w3.org/Graphics/SVG/1.1/DTD/svg11.dtd"><svg t="1577411133904" class="icon" viewBox="0 0 1024 1024" version="1.1" xmlns="http://www.w3.org/2000/svg" p-id="5255" xmlns:xlink="http://www.w3.org/1999/xlink" width="200" height="200"><defs><style type="text/css"></style></defs><path d="M512 0C230.4 0 0 230.4 0 512s230.4 512 512 512 512-230.4 512-512S793.6 0 512 0z m288 371.2L460.8 710.4c-6.4 6.4-19.2 12.8-25.6 12.8-12.8 0-19.2-6.4-25.6-12.8L224 531.2c-12.8-12.8-12.8-38.4 0-57.6 12.8-12.8 38.4-12.8 57.6 0l147.2 147.2L736 313.6c12.8-12.8 38.4-12.8 57.6 0 19.2 19.2 19.2 44.8 6.4 57.6z" p-id="5256" fill="#ffffff"></path></svg>